<svg xmlns="http://www.w3.org/2000/svg" viewBox="-9 -9 66 66" width="1024" height="1024">
  <g fill="#ffffff">
    <rect x="10.5" y="26" width="7" height="9.5" rx="3.5" transform="rotate(-20 14 31)"/>
    <rect x="30.5" y="26" width="7" height="9.5" rx="3.5" transform="rotate(20 34 31)"/>
    <rect x="16" y="29.5" width="7" height="9.5" rx="3.5" transform="rotate(-7 19.5 34)"/>
    <rect x="25" y="29.5" width="7" height="9.5" rx="3.5" transform="rotate(7 28.5 34)"/>
  </g>
  <path d="M10.5 25 l-3.5 -1.4 v3 z" fill="#ffffff"/>
  <circle cx="38.6" cy="22" r="4.6" fill="#ffffff"/>
  <circle cx="40.2" cy="20.6" r="0.95" fill="#047857"/>
  <path d="M9.5 26 C9.5 16.6 15.8 11.5 23 11.5 C30.2 11.5 36.5 16.6 36.5 26 C36.5 31.2 30.2 34.5 23 34.5 C15.8 34.5 9.5 31.2 9.5 26 Z" fill="#ffffff"/>
  <g fill="none" stroke="#047857" stroke-width="1.7" stroke-linecap="round" stroke-linejoin="round">
    <path d="M23 13.5 L23 33"/>
    <path d="M11.5 21 Q23 16.8 34.5 21"/>
    <path d="M10.6 28.5 Q23 33.5 35.4 28.5"/>
  </g>
</svg>
